<?xml version="1.0" encoding="UTF-8" standalone="no"?>
<!-- Created with Inkscape (http://www.inkscape.org/) -->

<svg
   xmlns:dc="http://purl.org/dc/elements/1.1/"
   xmlns:cc="http://creativecommons.org/ns#"
   xmlns:rdf="http://www.w3.org/1999/02/22-rdf-syntax-ns#"
   xmlns:svg="http://www.w3.org/2000/svg"
   xmlns="http://www.w3.org/2000/svg"
   xmlns:sodipodi="http://sodipodi.sourceforge.net/DTD/sodipodi-0.dtd"
   xmlns:inkscape="http://www.inkscape.org/namespaces/inkscape"
   width="724.55316"
   height="186.03886"
   id="svg2"
   version="1.1"
   inkscape:version="0.48.2 r9819"
   sodipodi:docname="devices-crop.svg">
  <defs
     id="defs4" />
  <sodipodi:namedview
     id="base"
     pagecolor="#ffffff"
     bordercolor="#666666"
     borderopacity="1.0"
     inkscape:pageopacity="0.0"
     inkscape:pageshadow="2"
     inkscape:zoom="0.98994949"
     inkscape:cx="276.74687"
     inkscape:cy="-10.80465"
     inkscape:document-units="px"
     inkscape:current-layer="layer1"
     showgrid="false"
     inkscape:window-width="1366"
     inkscape:window-height="748"
     inkscape:window-x="-8"
     inkscape:window-y="-8"
     inkscape:window-maximized="1"
     fit-margin-top="0"
     fit-margin-left="0"
     fit-margin-right="0"
     fit-margin-bottom="0" />
  <metadata
     id="metadata7">
    <rdf:RDF>
      <cc:Work
         rdf:about="">
        <dc:format>image/svg+xml</dc:format>
        <dc:type
           rdf:resource="http://purl.org/dc/dcmitype/StillImage" />
        <dc:title />
      </cc:Work>
    </rdf:RDF>
  </metadata>
  <g
     inkscape:groupmode="layer"
     id="layer2"
     inkscape:label="type"
     transform="translate(5,-332.61742)"
     style="display:inline">
    <rect
       style="fill:#80c2b7;fill-opacity:1;stroke:none"
       id="rect4023"
       width="247.99245"
       height="142.4315"
       x="37.880722"
       y="349.29602" />
    <rect
       style="fill:#80c2b7;fill-opacity:1;stroke:none"
       id="rect4025"
       width="126.77414"
       height="161.62442"
       x="370.72598"
       y="343.23511" />
    <rect
       style="fill:#80c2b7;fill-opacity:1;stroke:none"
       id="rect4027"
       width="92.428963"
       height="131.82492"
       x="541.44177"
       y="372.52951" />
    <rect
       style="fill:#80c2b7;fill-opacity:1;stroke:none"
       id="rect4029"
       width="48.487103"
       height="79.29705"
       x="669.22607"
       y="426.57269" />
  </g>
  <g
     inkscape:label="Layer 1"
     inkscape:groupmode="layer"
     id="layer1"
     transform="translate(5,-332.61742)">
    <path
       style="fill:#252020;fill-opacity:1;stroke:none"
       d="m 182.96875,340.59375 c -68.63599,0.0369 -146,0.15625 -146,0.15625 -3.259648,-0.0628 -6.656276,1.29736 -6.78125,7.40625 l 0,147.40625 c 0,0 1.245535,5.54018 6.78125,5.71875 5.535714,0.17857 249.46875,0 249.46875,0 0,0 5.53572,-0.16964 6.25,-4.8125 0.71429,-4.64285 0,-149.8125 0,-149.8125 0,0 -0.5491,-5.54911 -5.90625,-5.90625 -1.33929,-0.0893 -17.60938,-0.13951 -41.28125,-0.15625 -17.75391,-0.0126 -39.65259,-0.0123 -62.53125,0 z m -21.78125,4 c 0.92458,0 1.65625,0.76292 1.65625,1.6875 0,0.92458 -0.73167,1.65625 -1.65625,1.65625 -0.92458,0 -1.6875,-0.73167 -1.6875,-1.65625 0,-0.92458 0.76292,-1.6875 1.6875,-1.6875 z m -119.40625,7.78125 240,0 0,137.125 -240,0 0,-137.125 z"
       id="path2996"
       class="device"
       inkscape:connector-curvature="0" />
    <path
       style="fill:#252020;fill-opacity:1;stroke:none"
       d="m -5,504.32647 0,10.71428 c 0,0 1.6071428,3.39286 6.4285714,3.21429 4.8214286,-0.17857 320.8928586,0 320.8928586,0 0,0 5.89286,-0.15538 5.89286,-4.46429 0,-5.97013 0,-9.64285 0,-9.64285 l -138.36037,0 c 0,0 -0.73564,6.20729 -5.38252,6.42857 -3.75,0.17857 -43.2214,-0.17857 -43.2214,-0.17857 -8.73774,0.75297 -8.21429,-5.17858 -8.21429,-5.17858 z"
       id="path3772"
       inkscape:connector-curvature="0"
       sodipodi:nodetypes="ccscsccsscc"
       class="device" />
    <path
       style="fill:#252020;fill-opacity:1;stroke:none"
       d="m 369,332.625 c -3.05752,0.0897 -10.54994,1.24397 -10.6875,11.4375 l 0,162.21875 c 0,0 0.9739,12.03125 10.875,12.03125 l 123.125,0 c 11.875,-2.20982 11.46875,-12.90625 11.46875,-12.90625 l 0,-160.8125 c 0,0 0.66957,-11.96875 -12.53125,-11.96875 l -121.25,0 c -0.22118,-0.007 -0.56321,-0.0128 -1,0 z m 62.28125,6.1875 c 1.22039,0 2.1875,0.99836 2.1875,2.21875 0,1.22039 -0.96711,2.21875 -2.1875,2.21875 -1.22039,0 -2.21875,-0.99836 -2.21875,-2.21875 0,-1.22039 0.99836,-2.21875 2.21875,-2.21875 z m -56,10.46875 112.125,0 0,152.5625 -112.125,0 0,-152.5625 z m 56.1875,156.09375 c 2.58025,0 4.65625,2.076 4.65625,4.65625 0,2.58025 -2.076,4.6875 -4.65625,4.6875 -2.58025,0 -4.6875,-2.10725 -4.6875,-4.6875 0,-2.58025 2.10725,-4.65625 4.6875,-4.65625 z"
       id="path3774"
       class="device"
       inkscape:connector-curvature="0" />
    <path
       style="fill:#252020;fill-opacity:1;stroke:none"
       d="m 544.84375,363.46875 c -3.05752,0.0897 -10.54994,1.24397 -10.6875,11.4375 l 0,131.46875 c 0,0 0.9739,12.03125 10.875,12.03125 l 83.125,0 C 640.28379,516.57524 639.625,505.5 639.625,505.5 l 0,-130.8125 c 0,0 0.66957,-11.21875 -12.53125,-11.21875 l -81.25,0 c -0.22129,0 -0.56321,-0.0128 -1,0 z m 42.0625,6.65625 c 1.04605,0 1.875,0.8602 1.875,1.90625 0,1.04605 -0.82895,1.875 -1.875,1.875 -1.04605,0 -1.90625,-0.82895 -1.90625,-1.875 0,-1.04605 0.8602,-1.90625 1.90625,-1.90625 z m -45.6875,10.5625 90.9375,0 0,121.25 -90.9375,0 0,-121.25 z m 46.09375,124.78125 c 2.58025,0 4.65625,2.076 4.65625,4.65625 0,2.58025 -2.076,4.6875 -4.65625,4.6875 -2.58025,0 -4.6875,-2.10725 -4.6875,-4.6875 0,-2.58025 2.10725,-4.65625 4.6875,-4.65625 z"
       id="path3774-1"
       class="device"
       inkscape:connector-curvature="0" />
    <path
       style="fill:#252020;fill-opacity:1;stroke:none"
       d="m 680.375,416.03125 c -7.67398,0 -10.36054,0.9283 -10.6875,11.4375 l 0,79.46875 c 0,0 0.97393,11.74118 10.875,11.71875 l 27.875,-0.0625 c 12.12754,-1.83101 11.09375,-12.53125 11.09375,-12.53125 l 0,-82.875 c 0,0 0.18713,-7.15625 -8.3125,-7.15625 l -29.84375,0 c -0.22129,0 -0.56321,-0.0128 -1,0 z m 13.90625,2.4375 c 0.78898,0 1.4375,0.64852 1.4375,1.4375 0,0.78898 -0.64852,1.4375 -1.4375,1.4375 -0.78898,0 -1.4375,-0.64852 -1.4375,-1.4375 0,-0.78898 0.64852,-1.4375 1.4375,-1.4375 z m -2.9375,5.4375 8.75,0 0,2.125 -8.75,0 0,-2.125 z m -3.65625,0.125 c 0.462,0 0.8125,0.3505 0.8125,0.8125 0,0.462 -0.3505,0.84375 -0.8125,0.84375 -0.462,0 -0.84375,-0.38175 -0.84375,-0.84375 0,-0.462 0.38175,-0.8125 0.84375,-0.8125 z M 673.5,429.25 l 41.4375,0 0,75.25 -41.4375,0 0,-75.25 z m 20.59375,78.1875 c 2.20667,0 4,1.79333 4,4 0,2.20667 -1.79333,4 -4,4 -2.20667,0 -4,-1.79333 -4,-4 0,-2.20667 1.79333,-4 4,-4 z"
       id="path3774-1-7"
       class="device"
       inkscape:connector-curvature="0" />
    <g
       id="g3962"
       transform="matrix(0.34912042,0,0,0.34912042,2.5585658,559.94194)">
      <path
         sodipodi:nodetypes="cscscsccsccscscccccccsssssccccccsssssccccccsssssccccccccccccsssss"
         inkscape:connector-curvature="0"
         id="path3853"
         d="m 139.40625,59.875 c 0,0 -9.92857,11.066965 -12.875,11.78125 -2.94643,0.714286 -32.96875,0.71875 -32.96875,0.71875 0,0 -20.163668,28.56256 -21.59375,66.0625 C 70.361607,180.58036 95,217.71875 95,217.71875 c 0,0 28.74554,-1.07142 33.03125,0 4.28572,1.07143 14.8125,15 14.8125,15 l 280,0 c 0,0 0.19643,-1.4375 4.125,-6.4375 3.92857,-5 11.25,-8.53125 11.25,-8.53125 l 31.4375,-0.78125 c 0,0 19.45599,-29.9554 24.21875,-69.46875 4.38692,-36.39527 -22.625,-75 -22.625,-75 0,0 -21.35755,-0.505076 -29.3125,0 -7.95495,0.505076 -16.65625,-12.625 -16.65625,-12.625 z m 19.15625,8.1875 246.4375,0 0,142.15625 -246.4375,0 z M 450.09375,95.75 c 6.75563,0 12.21875,5.49437 12.21875,12.25 0,6.75563 -5.46312,12.21875 -12.21875,12.21875 -6.75563,0 -12.25,-5.46312 -12.25,-12.21875 0,-6.75563 5.49437,-12.25 12.25,-12.25 z m -322.15625,6.6875 0,15.28125 -10.71875,11.79911 -11.6875,-11.70536 -0.1875,-15.28125 z M 475,121.03125 c 6.75563,0 12.21875,5.46312 12.21875,12.21875 0,6.75563 -5.46312,12.25 -12.21875,12.25 -6.75563,0 -12.21875,-5.49437 -12.21875,-12.25 0,-6.75563 5.46312,-12.21875 12.21875,-12.21875 z m -388.15625,0.0312 15.25,0 10.90625,11.25 -10.8125,11.15625 -15.28125,0.1875 z m 337.25,0.125 c 6.75563,0 12.25,5.49437 12.25,12.25 0,6.75563 -5.49437,12.21875 -12.25,12.21875 -6.75563,0 -12.21875,-5.46312 -12.21875,-12.21875 0,-6.75563 5.46312,-12.25 12.21875,-12.25 z M 147,121.59375 l 0.0937,22.59375 -15.25,0 -10.01339,-11.78125 9.91964,-10.625 z m -29.53125,15.08929 11.15625,11.34821 0.15625,15.28125 -22.5625,0.0625 0,-15.25 z m 332.1875,9.69196 c 6.75563,0 12.21875,5.49437 12.21875,12.25 0,6.75563 -5.46312,12.21875 -12.21875,12.21875 -6.75563,0 -12.25,-5.46312 -12.25,-12.21875 0,-6.75563 5.49437,-12.25 12.25,-12.25 z"
         style="fill:#000000;fill-opacity:1;stroke:none" />
      <path
         inkscape:connector-curvature="0"
         id="path3958"
         d="m 97.232143,219.77289 c 0,0 9.107147,11.875 16.785717,12.14286 7.67857,0.26786 26.07143,0 26.07143,0"
         style="fill:none;stroke:#000000;stroke-width:2.5;stroke-linecap:butt;stroke-linejoin:miter;stroke-miterlimit:4;stroke-opacity:1;stroke-dasharray:none" />
      <path
         sodipodi:nodetypes="cscc"
         inkscape:connector-curvature="0"
         id="path3960"
         d="m 95.089286,70.48718 c 0,0 6.964284,-14.821429 17.678574,-15.535714 10.71428,-0.714286 341.07143,-0.357143 341.07143,-0.357143 0,0 9.58613,2.623392 16.08002,15.448673"
         style="fill:none;stroke:#000000;stroke-width:2.5;stroke-linecap:butt;stroke-linejoin:miter;stroke-miterlimit:4;stroke-opacity:1;stroke-dasharray:none" />
    </g>
    <g
       transform="matrix(2.3440139,0,0,2.3440139,-86.567627,-519.33742)"
       style="font-size:72px;font-style:normal;font-variant:normal;font-weight:normal;font-stretch:normal;line-height:125%;letter-spacing:0px;word-spacing:0px;fill:#ffffff;fill-opacity:1;stroke:none;font-family:Bebas Neue;-inkscape-font-specification:Bebas Neue"
       id="flowRoot4031">
      <path
         d="m 58.563741,426.75397 c 0.635991,0.069 1.253982,0.111 1.853976,0.126 0.599988,0.015 1.253979,0.021 1.961975,0.018 3.088452,0.102 5.731415,-0.74999 7.928897,-2.55597 2.197457,-1.80597 3.346441,-5.17793 3.446956,-10.11587 l 0,-37.87151 -7.919898,0 0,38.4475 c -0.03151,1.90199 -0.472502,3.19197 -1.322983,3.86995 -0.850495,0.678 -1.92148,0.996 -3.212958,0.95399 -0.437998,0.002 -0.893991,-0.001 -1.367983,-0.009 -0.473996,-0.007 -0.929989,-0.0285 -1.367982,-0.063 z"
         style=""
         id="path3870" />
      <path
         d="m 78.137601,388.45046 c 0.191107,4.67109 1.528866,8.34481 4.013281,11.02119 2.484403,2.67644 4.968812,5.12885 7.453235,7.35724 2.484397,2.22843 3.822157,5.00617 4.013285,8.33323 -0.01352,1.77899 -0.382513,3.04497 -1.106987,3.79795 -0.724506,0.753 -1.723492,1.11899 -2.996961,1.09799 -1.273496,0.021 -2.272482,-0.34499 -2.996963,-1.09799 -0.7245,-0.75298 -1.093495,-2.01897 -1.106984,-3.79795 l 0,-3.59995 -7.487903,0 0,3.09596 c 0.006,4.05595 1.001983,7.17591 2.98796,9.35988 1.985968,2.18397 4.925927,3.28795 8.819888,3.31195 3.893932,-0.024 6.833891,-1.12798 8.819885,-3.31195 1.985953,-2.18397 2.981933,-5.30393 2.987963,-9.35988 -0.19113,-4.67104 -1.52889,-8.34477 -4.013284,-11.0212 -2.484431,-2.67638 -4.968841,-5.12879 -7.453237,-7.35724 -2.484424,-2.22838 -3.822182,-5.00612 -4.01328,-8.33322 0.0075,-1.78194 0.352485,-3.05992 1.034986,-3.83395 0.682479,-0.77395 1.657466,-1.15194 2.924963,-1.13399 1.267468,-0.0179 2.242454,0.36004 2.924961,1.13399 0.682473,0.77403 1.027469,2.05201 1.034988,3.83395 l 0,2.08797 7.487903,0 0,-1.58398 c -0.005,-4.0559 -0.98551,-7.17586 -2.942961,-9.35988 -1.957496,-2.18392 -4.864456,-3.2879 -8.720888,-3.31195 -3.85646,0.024 -6.76342,1.12803 -8.720889,3.31195 -1.957478,2.18402 -2.938464,5.30398 -2.942961,9.35988 z"
         style=""
         id="path3872" />
      <path
         d="m 106.00496,419.12207 0,7.6319 7.6319,0 0,-7.6319 z"
         style=""
         id="path3874" />
    </g>
    <g
       transform="matrix(2.3440139,0,0,2.3440139,242.36047,-519.60095)"
       style="font-size:72px;font-style:normal;font-variant:normal;font-weight:normal;font-stretch:normal;line-height:125%;letter-spacing:0px;word-spacing:0px;fill:#ffffff;fill-opacity:1;stroke:none;font-family:Bebas Neue;-inkscape-font-specification:Bebas Neue"
       id="flowRoot4031-1">
      <path
         d="m 58.563741,426.75397 c 0.635991,0.069 1.253982,0.111 1.853976,0.126 0.599988,0.015 1.253979,0.021 1.961975,0.018 3.088452,0.102 5.731415,-0.74999 7.928897,-2.55597 2.197457,-1.80597 3.346441,-5.17793 3.446956,-10.11587 l 0,-37.87151 -7.919898,0 0,38.4475 c -0.03151,1.90199 -0.472502,3.19197 -1.322983,3.86995 -0.850495,0.678 -1.92148,0.996 -3.212958,0.95399 -0.437998,0.002 -0.893991,-0.001 -1.367983,-0.009 -0.473996,-0.007 -0.929989,-0.0285 -1.367982,-0.063 z"
         style=""
         id="path3865" />
      <path
         d="m 78.137601,388.45046 c 0.191107,4.67109 1.528866,8.34481 4.013281,11.02119 2.484403,2.67644 4.968812,5.12885 7.453235,7.35724 2.484397,2.22843 3.822157,5.00617 4.013285,8.33323 -0.01352,1.77899 -0.382513,3.04497 -1.106987,3.79795 -0.724506,0.753 -1.723492,1.11899 -2.996961,1.09799 -1.273496,0.021 -2.272482,-0.34499 -2.996963,-1.09799 -0.7245,-0.75298 -1.093495,-2.01897 -1.106984,-3.79795 l 0,-3.59995 -7.487903,0 0,3.09596 c 0.006,4.05595 1.001983,7.17591 2.98796,9.35988 1.985968,2.18397 4.925927,3.28795 8.819888,3.31195 3.893932,-0.024 6.833891,-1.12798 8.819885,-3.31195 1.985953,-2.18397 2.981933,-5.30393 2.987963,-9.35988 -0.19113,-4.67104 -1.52889,-8.34477 -4.013284,-11.0212 -2.484431,-2.67638 -4.968841,-5.12879 -7.453237,-7.35724 -2.484424,-2.22838 -3.822182,-5.00612 -4.01328,-8.33322 0.0075,-1.78194 0.352485,-3.05992 1.034986,-3.83395 0.682479,-0.77395 1.657466,-1.15194 2.924963,-1.13399 1.267468,-0.0179 2.242454,0.36004 2.924961,1.13399 0.682473,0.77403 1.027469,2.05201 1.034988,3.83395 l 0,2.08797 7.487903,0 0,-1.58398 c -0.005,-4.0559 -0.98551,-7.17586 -2.942961,-9.35988 -1.957496,-2.18392 -4.864456,-3.2879 -8.720888,-3.31195 -3.85646,0.024 -6.76342,1.12803 -8.720889,3.31195 -1.957478,2.18402 -2.938464,5.30398 -2.942961,9.35988 z"
         style=""
         id="path3867" />
    </g>
    <g
       transform="matrix(1.6791532,0,0,1.6791532,451.2972,-239.04625)"
       style="font-size:72px;font-style:normal;font-variant:normal;font-weight:normal;font-stretch:normal;line-height:125%;letter-spacing:0px;word-spacing:0px;fill:#ffffff;fill-opacity:1;stroke:none;font-family:Bebas Neue;-inkscape-font-specification:Bebas Neue"
       id="flowRoot4031-1-9">
      <path
         d="m 58.563741,426.75397 c 0.635991,0.069 1.253982,0.111 1.853976,0.126 0.599988,0.015 1.253979,0.021 1.961975,0.018 3.088452,0.102 5.731415,-0.74999 7.928897,-2.55597 2.197457,-1.80597 3.346441,-5.17793 3.446956,-10.11587 l 0,-37.87151 -7.919898,0 0,38.4475 c -0.03151,1.90199 -0.472502,3.19197 -1.322983,3.86995 -0.850495,0.678 -1.92148,0.996 -3.212958,0.95399 -0.437998,0.002 -0.893991,-0.001 -1.367983,-0.009 -0.473996,-0.007 -0.929989,-0.0285 -1.367982,-0.063 z"
         style=""
         id="path3860" />
      <path
         d="m 78.137601,388.45046 c 0.191107,4.67109 1.528866,8.34481 4.013281,11.02119 2.484403,2.67644 4.968812,5.12885 7.453235,7.35724 2.484397,2.22843 3.822157,5.00617 4.013285,8.33323 -0.01352,1.77899 -0.382513,3.04497 -1.106987,3.79795 -0.724506,0.753 -1.723492,1.11899 -2.996961,1.09799 -1.273496,0.021 -2.272482,-0.34499 -2.996963,-1.09799 -0.7245,-0.75298 -1.093495,-2.01897 -1.106984,-3.79795 l 0,-3.59995 -7.487903,0 0,3.09596 c 0.006,4.05595 1.001983,7.17591 2.98796,9.35988 1.985968,2.18397 4.925927,3.28795 8.819888,3.31195 3.893932,-0.024 6.833891,-1.12798 8.819885,-3.31195 1.985953,-2.18397 2.981933,-5.30393 2.987963,-9.35988 -0.19113,-4.67104 -1.52889,-8.34477 -4.013284,-11.0212 -2.484431,-2.67638 -4.968841,-5.12879 -7.453237,-7.35724 -2.484424,-2.22838 -3.822182,-5.00612 -4.01328,-8.33322 0.0075,-1.78194 0.352485,-3.05992 1.034986,-3.83395 0.682479,-0.77395 1.657466,-1.15194 2.924963,-1.13399 1.267468,-0.0179 2.242454,0.36004 2.924961,1.13399 0.682473,0.77403 1.027469,2.05201 1.034988,3.83395 l 0,2.08797 7.487903,0 0,-1.58398 c -0.005,-4.0559 -0.98551,-7.17586 -2.942961,-9.35988 -1.957496,-2.18392 -4.864456,-3.2879 -8.720888,-3.31195 -3.85646,0.024 -6.76342,1.12803 -8.720889,3.31195 -1.957478,2.18402 -2.938464,5.30398 -2.942961,9.35988 z"
         style=""
         id="path3862" />
    </g>
    <g
       transform="matrix(0.80623693,0,0,0.80623693,628.84701,133.97143)"
       style="font-size:72px;font-style:normal;font-variant:normal;font-weight:normal;font-stretch:normal;line-height:125%;letter-spacing:0px;word-spacing:0px;fill:#ffffff;fill-opacity:1;stroke:none;font-family:Bebas Neue;-inkscape-font-specification:Bebas Neue"
       id="flowRoot4031-1-9-2">
      <path
         d="m 58.563741,426.75397 c 0.635991,0.069 1.253982,0.111 1.853976,0.126 0.599988,0.015 1.253979,0.021 1.961975,0.018 3.088452,0.102 5.731415,-0.74999 7.928897,-2.55597 2.197457,-1.80597 3.346441,-5.17793 3.446956,-10.11587 l 0,-37.87151 -7.919898,0 0,38.4475 c -0.03151,1.90199 -0.472502,3.19197 -1.322983,3.86995 -0.850495,0.678 -1.92148,0.996 -3.212958,0.95399 -0.437998,0.002 -0.893991,-0.001 -1.367983,-0.009 -0.473996,-0.007 -0.929989,-0.0285 -1.367982,-0.063 z"
         style=""
         id="path3855" />
      <path
         d="m 78.137601,388.45046 c 0.191107,4.67109 1.528866,8.34481 4.013281,11.02119 2.484403,2.67644 4.968812,5.12885 7.453235,7.35724 2.484397,2.22843 3.822157,5.00617 4.013285,8.33323 -0.01352,1.77899 -0.382513,3.04497 -1.106987,3.79795 -0.724506,0.753 -1.723492,1.11899 -2.996961,1.09799 -1.273496,0.021 -2.272482,-0.34499 -2.996963,-1.09799 -0.7245,-0.75298 -1.093495,-2.01897 -1.106984,-3.79795 l 0,-3.59995 -7.487903,0 0,3.09596 c 0.006,4.05595 1.001983,7.17591 2.98796,9.35988 1.985968,2.18397 4.925927,3.28795 8.819888,3.31195 3.893932,-0.024 6.833891,-1.12798 8.819885,-3.31195 1.985953,-2.18397 2.981933,-5.30393 2.987963,-9.35988 -0.19113,-4.67104 -1.52889,-8.34477 -4.013284,-11.0212 -2.484431,-2.67638 -4.968841,-5.12879 -7.453237,-7.35724 -2.484424,-2.22838 -3.822182,-5.00612 -4.01328,-8.33322 0.0075,-1.78194 0.352485,-3.05992 1.034986,-3.83395 0.682479,-0.77395 1.657466,-1.15194 2.924963,-1.13399 1.267468,-0.0179 2.242454,0.36004 2.924961,1.13399 0.682473,0.77403 1.027469,2.05201 1.034988,3.83395 l 0,2.08797 7.487903,0 0,-1.58398 c -0.005,-4.0559 -0.98551,-7.17586 -2.942961,-9.35988 -1.957496,-2.18392 -4.864456,-3.2879 -8.720888,-3.31195 -3.85646,0.024 -6.76342,1.12803 -8.720889,3.31195 -1.957478,2.18402 -2.938464,5.30398 -2.942961,9.35988 z"
         style=""
         id="path3857" />
    </g>
  </g>
</svg>
